<?xml version="1.0" encoding="utf-8"?>
<!-- Generator: Adobe Illustrator 23.0.1, SVG Export Plug-In . SVG Version: 6.00 Build 0)  -->
<svg version="1.1" id="Layer_1" xmlns="http://www.w3.org/2000/svg" xmlns:xlink="http://www.w3.org/1999/xlink" x="0px" y="0px"
	 viewBox="0 0 20 20" style="enable-background:new 0 0 20 20;" xml:space="preserve">
<style type="text/css">
	.st0{fill:#E8D231;}
</style>
<title>checkmark-outline</title>
<path class="st0" d="M2.9,17.1C1,15.2-0.1,12.7-0.1,9.9c0-5.5,4.5-10,10-10c2.8,0,5.4,1.2,7.2,3l0,0c1.7,1.8,2.8,4.2,2.8,6.9
	c0,5.5-4.5,10-10,10C7.2,19.9,4.7,18.8,2.9,17.1C2.9,17.1,2.9,17.1,2.9,17.1z M15.7,15.7c1.4-1.4,2.3-3.4,2.3-5.7c0-4.4-3.6-8-8-8
	C7.8,2,5.8,2.9,4.3,4.3l0,0C2.9,5.8,2,7.8,2,10c0,4.4,3.6,8,8,8C12.2,18,14.2,17.1,15.7,15.7L15.7,15.7z M6.7,9.3L9,11.6l4.3-4.3
	l1.4,1.4L9,14.4l-3.7-3.7L6.7,9.3L6.7,9.3z"/>
</svg>
