<?xml version="1.0" encoding="utf-8"?>
<!-- Generator: Adobe Illustrator 23.0.1, SVG Export Plug-In . SVG Version: 6.00 Build 0)  -->
<svg version="1.1" id="Layer_1" xmlns="http://www.w3.org/2000/svg" xmlns:xlink="http://www.w3.org/1999/xlink" x="0px" y="0px"
	 viewBox="0 0 426.6 111.2" style="enable-background:new 0 0 426.6 111.2;" xml:space="preserve">
<style type="text/css">
	.st0{fill:#006C54;}
	.st1{fill:#FCCA18;}
</style>
<path class="st0" d="M109.1,38.2c-7,0.7-7.7,1.2-8,2.5c-0.3,1.4-0.6,4.5-0.6,13.8v16.3c0,4.4,0.2,7.9,0.4,10.4
	c0.1,2.1,0.7,2.3,2,2.6c0.8,0.2,3.5,0.4,4.1,0.5c0.5,0.2,0.8,0.2,0.8,0.5c0,0.6-0.5,1.9-0.5,2.1c-6.4-0.2-9.6-0.2-12.5-0.2
	c-2.9,0-6.7,0.2-7,0.2c-0.5,0-0.9-0.3-1-0.6c-0.2-0.8-0.3-1.4-0.3-1.9c5.8-0.1,7.4-0.5,7.7-2.6c0.1-1.2,0.4-3.9,0.4-12.3V50.3
	c0-10.2-0.1-10.9-2.7-11.3c-0.8-0.1-1.8-0.2-4.4-0.3c-0.3,0-0.4-0.3-0.4-0.4c0-0.2,0.1-0.5,0.3-1.1c0.3-0.6,0.5-0.8,0.8-0.8
	c0.6-0.1,0.9-0.1,1.9-0.1c0.8,0,3.6,0.1,7.1,0.1c4.1-0.1,9.4-0.2,10.2-0.2c1,0,1.1,0.1,1.2,0.3L109.1,38.2z"/>
<path class="st0" d="M129.2,59.5c3.5,0,6.2-0.1,8.3-0.2c4.7-0.3,5-0.5,5.9-5.2c0.4-0.3,2.3-0.4,2.5-0.3c-0.2,2.3-0.6,5.7-0.6,8.1
	c0,2.6,0.3,4.8,0.5,7.1c-0.6,0.2-1.3,0.2-1.8,0.2c-0.3,0-0.5-0.2-0.6-0.5c-0.3-1-0.6-2.1-0.8-3c-0.5-2.2-1.3-2.7-4.5-3
	c-1.6-0.2-4.4-0.2-8.5-0.2c-4.1,0-4.9,0.1-5.4,0.2c-0.3,0.1-0.5,0.2-0.7,0.4c-0.2,0.3-0.8,2.9-0.8,9.3c0,5.8,0,8.1,0.8,9.3
	c1.1,1.6,3.4,1.8,10.4,1.8c9.3,0,13.6-0.5,16-8.5c0.4,0,1,0,1.8,0.1c0.2,0.1,0.2,0.2,0.2,0.5c-0.2,3.4-1.3,8.2-2.4,10.5
	c-0.3,0.5-0.6,0.6-1,0.6c-0.6,0-1.1,0-3.7-0.1c-2.4-0.1-7.7-0.2-14.2-0.2c-5.8,0-11.9,0.3-18.1,0.6c-0.1-0.1-0.2-1.7-0.2-2.3
	c0-0.1,0.2-0.3,0.3-0.4c3.4-0.6,3.7-1.1,3.7-2.3c0.2-1.2,0.5-6,0.5-14.1V55.4c0-11-0.4-14.8-0.5-15.2c-0.1-0.4-0.2-0.8-1-0.9
	c-0.7-0.2-2.3-0.4-4-0.9c-0.1-0.1-0.1-0.1-0.1-0.3l0.2-1.8c0-0.2,0-0.3,0.4-0.3h2.7c2.4,0,5.3,0.2,9.8,0.2h7.7
	c4.5,0,10.2-0.4,14-0.4c1.1,0,1.5,0.2,1.9,0.4c0.8,0.5,0.6,0.4,0.4,1.8c-0.7,3.2-0.7,7.9-0.7,9.9c-1.9-0.1-2.2-0.2-2.3-0.7
	c-0.8-5.6-1.1-8.2-7.6-8.2h-5.9c-4.5,0-7.2,0.2-8,0.4c-0.9,0.3-1.1,0.7-1.1,2.6c0,5.5,0.1,11,0.2,16.6c0,0.6,0.5,1.1,1.1,1.1
	L129.2,59.5L129.2,59.5z"/>
<path class="st0" d="M152.9,35.8c3.5,0.2,5.2,0.3,10.3,0.3c0.5,0,0.9,0.1,1,0.2c0.3,0.2,0.6,0.8,0.9,1.4c0.6,1,3.2,4.3,5.2,6.3
	c4.8,4.9,16.6,16.5,32.2,31.4c0-2.5,0.1-10.3,0.1-16c0-8.1,0.1-12.1-0.3-16.2c-0.1-1.4-0.3-3.3-2-3.9c-0.9-0.2-2.7-0.6-4.6-0.7
	c-0.2,0-0.4-0.1-0.4-0.3l-0.1-2.2h8.7c3,0,6-0.3,8.4-0.3c0.4,0,0.6,0.2,0.7,0.4l0.5,1.6c-2.2,0.6-3.7,1-4.9,1.7
	c-1.4,0.8-1.9,3.3-2.3,14c-0.3,6.9-0.4,11.9-0.4,23.1c0,4.5,0.2,9.1,0.2,10.5c-0.1,0.2-0.6,0.5-1.4,0.8c-0.4,0.1-0.7,0.1-1-0.3
	c-4.7-7-12.3-14.4-20.4-22.4c-6-5.9-12.2-12.1-19.1-19c-0.2,4.8-0.3,10.3-0.3,14.7c0,7.6,0.1,17.7,1,20.5c0.6,1.8,2.6,2.4,6.2,3.1
	l0.5,1.8c0.1,0.2-0.4,0.6-0.6,0.6c-3.4,0-6.7-0.3-9.9-0.3c-2.8,0-5,0.2-6.4,0.2l-0.6-2.1c4.8-1.3,5.1-2.1,5.5-4.8
	c0.3-1.8,1-9,1-20.7v-8.7c0.1-7.5-0.1-8.8-1.4-10c-1.3-1.3-2.4-1.9-5.9-2.3c-0.4-0.1-0.5-0.2-0.5-0.5L152.9,35.8L152.9,35.8z"/>
<path class="st0" d="M223.8,65.8c-1,0-1.3-0.6-1.2-0.9c2.8-8,3.9-10.5,7.8-19.2c0.3-0.7,0.7-0.8,0.8-0.5c2.7,6.8,4.2,11.3,7.3,19.5
	c0.2,0.4,0,1.1-0.4,1.1c-2.2,0.1-4.4,0.2-8.3,0.2C225.9,65.8,224.3,65.8,223.8,65.8L223.8,65.8z M233.1,35.3c-0.7,0-1.9,0.5-2.2,0.6
	c-0.3,0.2-0.4,0.2-0.4,0.6c-0.4,1.2-0.8,2.5-1.7,4.6c-4.7,10.8-13.4,32.8-15.7,37.2c-2,4-2.9,5.4-6,6.3c-0.1,0.2,0,1.6,0.3,2.2
	c0.1,0.1,0.2,0.2,0.5,0.2c0.3,0,1.7-0.1,3-0.1c1.5,0,6.1,0,9.6,0.1c0.3-0.3,0.6-1.6,0.6-2.1c-3.8-1.2-4.4-1.8-4.4-3.5
	c0-2,2.9-9.2,3.6-10.7c0.6-1.2,0.9-1.4,1.7-1.4c4.8-0.2,11.1-0.4,17.2-0.4c0.6,0,1,0.7,1.2,1.1c1.1,2.7,3.2,8.8,3.7,10.2
	c1.1,3.4,0.7,3.8-3.1,5c-0.1,0.2,0.1,1.6,0.4,2c0.1,0.2,0.2,0.2,0.5,0.2c0.7,0,2.5-0.3,5-0.3c2.6,0,4.2,0,10.2,0.1
	c0.4-0.3,0.9-2.2,0.6-2.3c-4.5-0.8-5.4-2.1-6.9-5.7c-0.9-2.2-7.7-17.3-10.2-24.2c-2.6-7.2-4.2-11.1-6.5-18.7
	C233.9,35.7,233.7,35.3,233.1,35.3L233.1,35.3L233.1,35.3z"/>
<path class="st0" d="M277.7,81.9c0,0.1-0.1,0.1-0.1,0.1c-2.4,3.7-5.4,5.8-10,5.8c-5.8,0-9.6-4.3-9.6-9.8c0-10.2,7.6-21.1,17.9-21.1
	c2.5,0,7.1,0.9,7.1,4.1c0,1.7-1,2.7-2.7,2.7s-1.8-1.1-2-2.3c-0.2-1.2-0.6-2.3-2.9-2.3c-7.2,0-12,11-12,17.1c0,4,1.5,7.8,6.4,7.8
	c2.7,0,5-1.2,6.8-3.1L277.7,81.9z"/>
<path class="st0" d="M286.5,77.6c0-6,4.1-18.4,11.5-18.4c3.9,0,5.6,3.4,5.6,6.9c0,6-3.7,19.6-11.6,19.6
	C287.4,85.7,286.5,81.1,286.5,77.6z M281.5,75.8c0,6.4,3.5,12.1,10.2,12.1c9.6,0,17.3-10,17.3-19.3c0-6.4-4.5-11.6-11-11.6
	C288.7,57,281.5,67,281.5,75.8z"/>
<path class="st0" d="M320.9,46.4c0.5-1.8,1.1-5,1.1-5.4c0-2.1-2.2-2.7-3.9-3l0.5-1.5c3.3-0.4,9.2-1.9,10-1.9c0.3,0,0.4,0.1,0.4,0.4
	s-0.3,1.5-1.1,3.9L317.6,74c-0.9,2.9-1.8,5.8-1.8,7.3c0,0.9,0.7,1.5,1.5,1.5c2.1,0,4.9-3.7,6.5-5.2h0.3l1,1v0.2c-2.3,3.2-8,9-12.1,9
	c-1.5,0-2.9-1.3-2.9-2.9c0-0.3,0.4-1.9,0.9-3.9L320.9,46.4z"/>
<path class="st0" d="M336.2,46.4c0.5-1.8,1.1-5,1.1-5.4c0-2.1-2.2-2.7-3.9-3l0.5-1.5c3.3-0.4,9.2-1.9,10-1.9c0.3,0,0.4,0.1,0.4,0.4
	s-0.3,1.5-1.1,3.9L332.9,74c-0.9,2.9-1.8,5.8-1.8,7.3c0,0.9,0.7,1.5,1.5,1.5c2.1,0,4.9-3.7,6.5-5.2h0.3l1,1v0.2c-2.3,3.2-8,9-12.1,9
	c-1.5,0-2.9-1.3-2.9-2.9c0-0.3,0.4-1.9,0.9-3.9L336.2,46.4z"/>
<path class="st0" d="M361.4,62.4c0,6.3-8.8,8.4-13.5,8.8c1.3-4.5,4.9-12.4,10.3-12.4C360.4,58.8,361.4,60.4,361.4,62.4z M341.6,77.8
	c0,5.6,2.5,10.1,8.8,10.1c4.8,0,8.8-2.5,11.5-6.6c-0.1-0.6-0.9-1.1-1.3-1.1c-2.4,2.5-4.5,3.8-8,3.8c-3.8,0-5.7-3.2-5.7-6.7
	c0-1.5,0.3-3,0.5-4.6c5.9-0.3,18.7-2.5,18.7-10.2c0-4.4-3.8-5.6-7.6-5.6C348.5,57,341.6,68.9,341.6,77.8z"/>
<path class="st0" d="M367.6,94.8c0-2.8,2-5.2,6.6-7.2c7.4,3.7,12.8,6.6,12.8,9.4c0,4.2-5.3,5-8.7,5
	C373.9,102,367.6,100.2,367.6,94.8z M396,58.9c-1.6,0.1-3.2,0.2-4.8,0.2c-0.9,0-1.8,0-2.7-0.1c-1.1-0.1-2.3-2-7.4-2
	c-7.2,0-12.6,4.8-12.6,12.1c0,4.1,2.3,8.1,6.1,9c-2.4,1.9-4.5,4.3-4.5,5.2c0,1.2,0.6,2.1,2.4,3.2c-6.2,2.5-9.2,4.3-9.2,9.2
	c0,5.7,8.6,8.8,14,8.8c6.1,0,14.1-1.6,14.1-8.8c0-3.7-2.9-5.6-5.8-7.3c-5.3-3.1-10.8-5.2-10.8-7c0-0.8,0.6-1.8,1.5-2.9
	c0.7,0.1,1.5,0.1,2.2,0.1c6.4,0,12.6-5.3,12.6-11.8c0-1.9-0.3-3.5-1-4.9h5L396,58.9z M373.1,71.3c0-4.8,1.8-12.2,8-12.2
	c3.4,0,5.3,2.4,5.3,6.1c0,4.5-2.8,11.3-8.2,11.3C375.1,76.6,373.1,74.2,373.1,71.3z"/>
<path class="st0" d="M414.9,62.4c0,6.3-8.8,8.4-13.5,8.8c1.3-4.5,4.9-12.4,10.3-12.4C413.9,58.8,414.9,60.4,414.9,62.4z M395.1,77.8
	c0,5.6,2.5,10.1,8.8,10.1c4.8,0,8.8-2.5,11.5-6.6c-0.1-0.6-0.9-1.1-1.3-1.1c-2.4,2.5-4.5,3.8-8,3.8c-3.8,0-5.7-3.2-5.7-6.7
	c0-1.5,0.3-3,0.5-4.6c5.9-0.3,18.7-2.5,18.7-10.2c0-4.4-3.8-5.6-7.6-5.6C402,57,395.1,68.9,395.1,77.8z"/>
<path class="st0" d="M53.5,88.2c-0.1,0-0.4-0.1-0.6-0.5c-0.3-0.5-0.5-1.6-0.6-2.7c-0.2-4-0.8-7.7-1.4-11.3c-0.2-0.4-0.1-0.6,0.2-0.7
	c0.5-0.1,1.3-0.2,1.8-0.2c0.3,0,0.5,0.2,0.8,0.9c0.3,1.3,0.8,3.3,2.1,5.1c2.5,3.5,7.7,6.3,13,6.3C76.1,85,81,80.4,81,74
	c0-2.8-1.4-5-3.6-6.9c-1.6-1.3-3.6-2.2-9.9-4.9c-6.1-2.6-9.2-4-11.8-7c-1.5-1.7-2.7-5-2.7-6.9c0-5.7,2.6-8.9,6.3-10.8
	c1.3-0.6,6.4-2.6,11.4-2.6c2.2,0,6.2,0.3,7.6,0.6c1,0.2,1.7,0.2,2.1,0.3c0.5,0,1.2-0.7,1.9-1.6c0.7-0.1,1.6,0,1.7,0.2
	c-0.2,4.3,0,7.9,0.7,11.9c0.1,0.4,0,0.8-0.2,0.9c-0.2,0.2-1.2,0.6-1.8,0.7c-0.2,0.1-0.3,0-0.4-0.3c-0.7-2.6-1.3-5.4-3.4-7.2
	c-1.6-1.5-5.6-2.6-9.7-2.6c-6.2,0-10.2,3.5-10.2,8.4c0,2.2,1,4.1,2.2,5.4c1.8,2,4.2,3.3,10.4,5.9c5.6,2.3,9,3.7,11.7,6.5
	c2.9,2.6,3.9,5.6,3.9,9.1c0,5.6-2.5,9.9-6.5,12.1c-3.3,1.9-10.5,2.7-13,2.7c-3.6,0-6.8-0.5-10.3-1.1c-0.6-0.1-1,0-1.4,0.1
	c-0.5,0.2-1,0.6-1.5,1C54,88.1,53.8,88.2,53.5,88.2L53.5,88.2L53.5,88.2z"/>
<g>
	<path class="st1" d="M38.9,81.8c-0.1,0.7,0.4,1.2,0.1,1.9c-0.3,0.7-0.1,1.3,0,2c0,0.4,0,1.3,0,1.7c0.1,0,0.6-0.1,0.7-0.1
		c2-0.1,3.3-0.1,5.4-0.2c0-0.1,0.2-0.7,0.2-1c0.1-1.1-0.1-3.4-0.1-4.5c0.2-2.1-0.1-2.9,0-5c0.1-1.8,0.1-3.5,0-5.3
		c0-0.9,0.3-1.8,0.3-2.7c0-0.3-0.1-0.7-0.1-1c0-0.2,0-0.3-0.1-0.5c0-0.2,0-0.4,0-0.6c0-0.1,0-0.1,0-0.2c0-0.1,0-0.2,0.1-0.4
		c0-0.2-0.1-0.4,0-0.6c0-0.2,0.1-0.4,0-0.6c-0.1-0.1-0.1-0.2-0.2-0.2c-0.1-0.1-0.2-0.1-0.3-0.1c-0.1,0-0.2-0.1-0.3-0.1
		c-0.1-0.1-0.2-0.1-0.4-0.2c-0.2,0-0.4-0.1-0.5-0.1c-0.4,0-0.7-0.1-1.1-0.1c-0.7-0.1-2.5-0.5-3-0.3c-0.4,0.2-0.1,1.3-0.2,1.7
		c-0.1,0.6-0.1,1.3-0.2,1.9c-0.1,0.5,0.1,1,0,1.6c-0.1,0.6-0.2,1.2,0,1.8c0.3,0.9-0.2,1.7-0.2,2.6c0,0.7,0,1.4,0.1,2.2
		c0,0.4,0.1,0.8,0.1,1.1c0,0.4-0.4,0.7-0.4,1c-0.1,0.7,0.2,1.4,0.2,2.1C39.1,80.3,39,81.1,38.9,81.8z"/>
</g>
<path class="st1" d="M26.5,7.6c-0.4,0-0.5,0-0.9,0.2c-0.4,0.1-0.2,0.6-0.1,0.8c0.1,0.3,0.3,0.6,0.4,0.9c0.1,0.4,0,0.9,0.1,1.3
	c0,0.9,0,1.8-0.1,2.7c-0.1,0.3-0.1,0.8,0.1,1.1c0.1,0.2,0.4,0.3,0.6,0.4c0.2,0.1,0.8,0.2,1,0.3c0.4,0,0.8-0.1,0.9-0.4
	c0.1-0.5,0.1-0.8,0-1.3c-0.1-0.9,0.1-1.9,0-2.9c0-0.1-0.1-0.3-0.1-0.4c0-0.2,0-0.3,0-0.5c0-0.3,0.1-0.7,0.1-1.1
	c0-0.2-0.1-0.7-0.3-0.8c-0.2-0.2-0.5-0.3-0.8-0.3L26.5,7.6z"/>
<path class="st1" d="M22.3,13.7c-0.4,0.1-0.8,0.1-1.1,0.4c-0.3,0.3,0,0.7,0,1.1c-0.1,0.4-0.2,0.7-0.2,1.1c0,0.5,0.3,0.6,0.7,0.5
	c0.4,0,0.7-0.2,1.1-0.2c0.5-0.1,0.8-0.2,0.8-0.7c0-0.2,0-0.4,0-0.6c0-0.2,0.1-0.4,0.2-0.6c0.1-0.4,0.1-0.8-0.2-1.1
	C23.2,13.3,22.7,13.6,22.3,13.7L22.3,13.7L22.3,13.7z"/>
<path class="st1" d="M32,17.9c-0.5,0.1-1.1,0.2-1.1,0.7c-0.1,0.4,0,1.1,0.1,1.5c0.1,0.4,0.9,0.5,1.2,0.4c0.4-0.2,0.2-0.9,0.3-1.2
	C32.5,19,32.5,17.9,32,17.9z"/>
<path class="st1" d="M26.5,34c0.7,0,1.3,0.1,1.9,0.3c0-0.1,0-0.2,0-0.2c0-0.3-0.2-0.7-0.2-1c0.1-0.7,0.1-1.3,0.1-2
	c0-0.7,0.1-1.3,0.1-2c0-0.5-0.3-1-0.1-1.5c0.2-0.6,0.1-1.3,0.1-1.9c0-0.5,0-1,0-1.5c0-0.4,0-0.9,0-1.3c0-0.6-0.2-1-0.2-1.6
	c0-0.6,0.2-1.1,0.1-1.7c-0.1-0.5-1.1-1.2-1.9-0.9c-0.2,0.1-0.4,0.3-0.4,0.5c-0.1,0.2-0.1,0.5-0.2,0.7c-0.1,0.9,0,1.7-0.1,2.6
	c0,0.5,0,0.9,0,1.4c0,0.5-0.1,1-0.1,1.5c0,0.5,0.1,0.9,0,1.4c0,0.4-0.1,0.8-0.1,1.3c0,1.2-0.1,2.4-0.1,3.6c0,0.8,0,1.5,0,2.3
	C25.9,34,26.2,34,26.5,34z"/>
<path class="st1" d="M26.3,30.6c-0.5,0-0.9,0.1-1.3,0.1c-0.2,0-1.3-0.1-1.3,0.2c0,0.3,1.1,0,1.3,0c0.5,0,0.9,0.1,1.4,0
	c0.1,0,0.5-0.1,0.5-0.2C26.8,30.6,26.4,30.6,26.3,30.6L26.3,30.6L26.3,30.6z"/>
<path class="st1" d="M12.7,39.6c0.1-0.3,0.4-0.6,0.5-0.9c0.2-0.3,0.3-0.6,0.6-0.9c0.1-0.1,0.5-0.6,0.7-0.4c0.1,0.2-0.1,0.2-0.2,0.3
	c-0.1,0.1-0.2,0.3-0.2,0.4c-0.1,0.3-0.4,0.5-0.5,0.7c-0.2,0.3-0.4,0.5-0.3,0.9c0.1,0.2,0.1,0.3,0.1,0.5c0,0.2-0.1,0.3-0.2,0.5
	c-0.1,0.3-0.2,0.7-0.2,1.1c0,0.2-0.1,0.3-0.1,0.5c-0.1,0.2-0.2,0.3-0.3,0.5c-0.1,0.2-0.1,0.9-0.4,0.9c-0.4,0,0.1-1.8,0.2-2
	c0.1-0.2,0.2-0.5,0.3-0.7c0-0.1,0-0.2,0.1-0.3s0.1-0.2,0.2-0.3c0.1-0.3-0.1-0.3-0.3-0.2c-0.1,0.1-0.3,0.3-0.4,0.3
	C12.1,40.5,12.7,39.7,12.7,39.6L12.7,39.6z"/>
<path class="st1" d="M11.1,44.8c0,0.2,0.1,0.3,0.1,0.5c0,0.2,0,0.3,0,0.5c0,0.2-0.1,0.3-0.1,0.5c0,0.2,0,0.2-0.1,0.4
	c-0.1,0.3-0.1,0.7-0.2,1c-0.1,0.1-0.1,0.3-0.3,0.1c-0.1-0.2,0.1-0.5,0.1-0.6c0-0.4,0.1-0.7,0.1-1.1c0-0.2,0-0.3,0-0.5
	c0.1-0.2,0.2-0.4,0.2-0.6c0-0.3-0.2-0.6-0.2-0.9c0-0.3,0.2-0.6,0.3-0.9c0.1-0.1,0.2-0.7,0.4-0.8c0.3-0.1-0.1,0.6-0.1,0.7
	c-0.1,0.3-0.1,0.6-0.2,0.9C11,44.3,10.9,44.6,11.1,44.8L11.1,44.8L11.1,44.8z"/>
<path class="st1" d="M48.4,51.4c-0.1-0.2-0.2-0.2-0.4-0.3c-0.2-0.1-0.3-0.4-0.5-0.6c-0.2-0.2-0.4-0.2-0.6-0.3
	c-0.3-0.1-0.5-0.5-0.8-0.6c-0.3-0.1-0.6,0-0.9,0c-0.3-0.1-0.5-0.3-0.8-0.4c-0.4-0.1-1.3-0.1-1.4-0.6c-0.2-0.7,1-0.5,1.3-0.5
	s0.6,0.1,0.4-0.3c-0.1-0.2-0.3-0.4-0.5-0.5c-0.9-0.7-2.2-0.8-3.3-1.1c-0.2-0.1-0.6-0.1-0.7-0.3c0,0,0-0.4,0-0.4
	c0-0.2-0.1-0.2,0.2-0.2c0.2-0.1,0.4,0.2,0.7,0.1c0.3-0.1,0.3-0.4,0.3-0.6c0-0.1-0.1-0.2-0.1-0.3c0-0.2,0.2-0.3,0.2-0.5
	c0-0.2-0.2-0.4-0.3-0.6c0-0.2-0.2-0.8-0.5-0.8c-0.4,0-0.2,0.6-0.7,0.3c-0.3-0.2-0.3-0.5-0.6-0.7c-0.3-0.1-0.6,0-0.9-0.1
	c-0.3-0.1-0.6-0.3-0.3-0.5c0.3-0.2,0.6-0.1,0.9-0.3c0.4-0.3,0.1-0.5-0.2-0.8c-0.2-0.1-0.3-0.2-0.3-0.4c0-0.1,0.1-0.1,0.1-0.2
	c0-0.1-0.1-0.2-0.1-0.2c-0.1-0.3-0.1-0.5-0.4-0.7c-0.3-0.2-0.5-0.1-0.6-0.5c-0.1-0.3,0-0.5-0.3-0.7c-0.3-0.2-0.6-0.2-1-0.3
	c-0.6-0.2-0.4-0.7-0.9-1.1c-0.5-0.4-1-0.7-1.4-1.1c-0.3-0.3-0.8-0.5-1.3-0.6c-0.3-0.1-0.6-0.2-0.9-0.4c-0.3-0.2-0.5-0.4-0.9-0.4
	c-0.9-0.2-1.9,0-2.8-0.1c-0.6-0.1-1.1,0.1-1.7,0c-0.5-0.1-1.3-0.3-1.8-0.1c-0.2,0.1-0.4,0.1-0.7,0.2c-0.3,0-0.6-0.1-0.9,0
	c-0.4,0.1-0.8,0.3-1.2,0.3c-0.4,0.1-0.9,0.1-1.3,0.2c-0.2,0.1-0.8,0.2-0.9,0.5c-0.2,0.4,0.5,0.6,0.4,1c-0.4,0-0.5-0.1-0.6,0.3
	c-0.1,0.2-0.2,0.5-0.5,0.5c-0.3,0-1.3-0.7-1.4-0.1c0.3,0.1,0.4,0.5,0.4,0.8c-0.2,0-0.1,0.4-0.3,0.5c-0.2,0.1-0.5,0.1-0.7,0.2
	c-0.4,0.2-1.1,0.4-1.2,0.7c-0.1,0.2-0.1,0.5-0.2,0.8c-0.2,0.3-0.4,0.3-0.5,0.7c0,0.1,0,0.3,0,0.4c0,0.1-0.2,0.2-0.2,0.3
	c0,0.2,0.4,0.4,0.4,0.6c0.2,0.5-0.3,0.7-0.5,1.2c-0.1,0.4-0.2,1.1-0.7,1.3c0-0.2,0-0.5-0.1-0.6c-0.3-0.2-0.4,0.2-0.5,0.4
	c-0.3,0.5-0.4,1.2-0.5,1.8c-0.1,0.3-0.2,0.5-0.1,0.9c0.2,0.3,0.3,0.4,0.5,0c0.1-0.2,0.2-0.5,0.4-0.6c0.4-0.1,0.4,0.2,0.3,0.5
	c0,0.3-0.1,0.3,0.3,0.2c0.2-0.1,0.4-0.2,0.6-0.2c0.7,0.1,0.1,0.5-0.2,0.6c-0.4,0.1-0.7,0.2-1,0.3c-0.6,0.3-1.2,0.3-1.8,0.7
	c-0.1,0.1-0.2,0.1-0.3,0.1c-0.1,0-0.2-0.1-0.3,0c-0.3,0.1-0.2,0.4-0.4,0.6c-0.2,0.2-0.5,0.5-0.7,0.7c-0.4,0.4-0.8,0.7-0.8,1.3
	c0,0.4,0,1.1-0.4,1.3c-0.4,0.3-0.9,0.3-1.3,0.7C7.1,53,6.4,53.7,7,53.6c0.5-0.1,1-0.5,1.4-0.8c0.5-0.3,0.9-0.7,1.4-0.9
	c0.3-0.1,0.5-0.3,0.9-0.4c0.3-0.1,0.5,0,0.8-0.1c0.6,0,1-0.4,1.6-0.4s1.1-0.4,1.7-0.4c0.6-0.1,1.2-0.1,1.7-0.3c0.3-0.1,0.6-0.1,1,0
	c0.3,0,0.5,0,0.9-0.1c0.6-0.2,1.2-0.3,1.9-0.4c0.7-0.1,1.4-0.1,2.1-0.2c1.4-0.2,2.8-0.3,4.2-0.3c0.7,0,1.5-0.1,2.2-0.1
	c0.9,0,1.8,0.1,2.7,0.1c1,0,2,0.1,3,0c0.6-0.1,1.2,0.2,1.8,0.2c0.8,0,1.7,0,2.4,0.2c0.6,0.2,1.1,0.2,1.8,0.3c0.7,0.1,1.3,0.3,2,0.5
	c0.2,0.1,0.5,0.3,0.8,0.3c0.3,0,0.6,0.1,1,0.1c0.7,0,1.3,0.7,2,0.9c0.6,0.2,1.1,0.3,1.7,0.4c0.3,0.1,0.4,0.2,0.6-0.1
	C48.5,52.1,48.5,51.7,48.4,51.4z M29.5,35.6c0,0.2,0,0.8-0.1,1c0,0,0,0.1,0,0.1c-0.1,0.1-0.2,0.1-0.3-0.1h0c-0.1-0.7-1.1-0.8-1.5-1
	c-0.5-0.3-1-0.1-1.6-0.1c-0.8-0.1-1.8-0.2-2.6,0c-0.1,0-0.7,0.5-0.7,0c0-0.2,0.7-0.6,0.9-0.6c0.4-0.1,0.8,0,1.2,0
	c0.4,0,0.7-0.1,1.1-0.1c0.4,0,0.6,0.1,1,0c0.3-0.1,0.7-0.3,1-0.2c0.3,0,0.4,0.3,0.6,0.4c0.3,0.1,0.6-0.3,0.8-0.2
	C29.7,34.9,29.6,35.3,29.5,35.6z"/>
<path class="st1" d="M35.5,33.3c0.5,0.1,0.9,0.6,1.4,0.9c0.2,0.1,0.5,0.2,0.7,0.3c0.3,0.2,0.6,0.4,0.9,0.7c0.5,0.4,1.2,0.6,1.6,1.2
	c0.1,0.2,0.5,0.4,0.7,0.8l0.3,0.5c0.3,0.2,0.2,0.5,0.5,0.8c0.6,0.5,1.1,1.2,1.1,2.1c-0.3,0.1-0.3-0.2-0.5-0.4
	c-0.2-0.2-0.3-0.6-0.5-0.8c-0.2-0.2-0.2-0.4-0.4-0.6c-0.3-0.2-0.3-0.1-0.5-0.5c-0.2-0.4-0.7-0.8-1-1.3c-0.2-0.2-0.4-0.6-0.6-0.8
	c-0.2-0.2-0.5-0.3-0.7-0.4c-0.3-0.2-0.5-0.5-0.9-0.7c-0.4-0.3-0.9-0.4-1.4-0.7c-0.3-0.2-0.3-0.3-0.6-0.4c-0.2-0.1-0.9-0.2-0.9-0.4
	C34.6,33,35.3,33.1,35.5,33.3"/>
<path class="st1" d="M11.9,51.8c-0.5,0.1-0.9,0.3-1.3,0.6c-0.5,0.2-1,0.5-1.5,0.7c-0.4,0.2-0.9,0.3-1.1,0.6
	c-0.3,0.4-0.7,0.9-1.1,1.2c-0.2,0.2-0.3,0.4-0.3,0.6c0,0.2-0.1,0.6,0,0.7c0.1,0.2,0.4,0.2,0.5,0.4c0,0.1-0.1,0.5-0.1,0.7
	c-0.1,0.5,0.1,0.9,0.4,1.3c0.1,0.1,0.5,0.4,0.5,0.1c0,0-0.1-0.2-0.2-0.3c0-0.1-0.1-0.2-0.1-0.4c-0.1-0.6,0-1.1,0.1-1.6
	c0.1-0.5,0.4-0.8,0.8-1.2c0.4-0.4,0.9-0.5,1.3-0.8c0.4-0.3,0.9-0.6,1.3-0.7c0.5-0.2,1.1-0.2,1.6-0.5c0.5-0.3,1-0.4,1.6-0.5
	c0.5-0.1,1.1-0.3,1.6-0.4c0.6,0,1.1-0.1,1.7-0.2c0.5-0.2,1.1-0.2,1.6-0.4s1-0.1,1.6-0.1c0.6-0.1,1.2-0.3,1.8-0.3
	c1.3,0,2.5-0.2,3.8-0.2c1.1,0.1,2.3-0.1,3.5-0.1c0.6,0,1.3,0.1,1.9,0.1c0.7,0,1.4,0.2,2.1,0.2c0.7,0,1.2,0,1.9,0.1
	c0.5,0.1,1.1,0.1,1.6,0.2c0.6,0.1,1.3,0.2,1.9,0.1c0.3,0,0.6-0.1,0.9,0c0.2,0,0.5,0.2,0.7,0.1c0.1-0.7-1.6-0.7-1.9-0.7
	c-1.1-0.1-2.2-0.3-3.3-0.4c-0.6-0.1-1.1,0-1.7,0c-0.3,0-0.6-0.2-1-0.2c-0.3,0-0.6,0.1-0.9,0c-0.6,0-1.2,0-1.8-0.1
	c-0.7-0.1-1.5-0.2-2.2-0.2c-1,0-2.1-0.2-3.1-0.1c-1.1,0-2.2,0.1-3.2,0.1c-0.4,0-0.6,0.1-1,0.1c-0.3,0-0.7,0-1,0
	c-0.6,0.1-1.1,0.4-1.7,0.4c-0.4,0-0.8-0.1-1.3-0.1c-0.4,0.1-0.7,0.1-1.1,0.2c-0.4,0.1-0.7,0.2-1.1,0.3c-0.4,0.1-0.9,0-1.3,0.1
	C12.7,51.4,12.3,51.6,11.9,51.8z"/>
<path class="st1" d="M25,53.6c-0.6,0-1.2,0.1-1.7,0.1c-0.6-0.1-1,0.1-1.6,0.2c-0.3,0-0.7,0-1,0c-0.3,0-0.6,0.1-0.9,0
	c-0.4,0-0.6-0.2-1,0c-0.3,0.1-0.6,0.2-0.9,0.2c-0.3,0-0.6-0.1-0.9,0c-0.5,0.1-1.1,0.3-1.6,0.4c-0.3,0-0.5,0.1-0.7,0.2
	c-0.5,0.2-0.9,0.3-1.5,0.4c-0.3,0.1-0.5,0.2-0.7,0.3c-0.3,0.1-0.5,0-0.7,0.2c-0.2,0.2-0.2,0.3-0.6,0.3c-0.3,0-0.4,0-0.7,0.1
	c-0.2,0.1-0.4,0.1-0.6,0.3c-0.1,0.1-0.1,0.2-0.2,0.3c-0.1,0.1-0.3,0.1-0.3,0.1C9.2,57,9.5,57,9.5,57.2c0,0.1-0.3,0.4-0.4,0.6
	c-0.2,0.4-0.4,0.9-0.4,1.4c0,0.3,0,0.4-0.2,0.6c-0.1,0.2-0.2,0.5-0.2,0.8c0,0.4-0.3,3.1,0.2,3c0.2,0,0.4-0.3,0.6-0.4
	c0.2-0.1,0.6-0.2,0.8-0.2c0.4,0,0.4,0.2,0.8-0.1c0.3-0.2,0.5-0.3,0.8-0.4c0.6-0.1,1.2-0.2,1.8-0.4c0.5-0.2,1-0.4,1.5-0.6
	c0.6-0.2,1.1-0.3,1.6-0.4c0.7-0.1,1.3-0.5,1.9-0.5c0.6-0.1,1.2-0.1,1.7-0.1c0.6,0,1.1-0.2,1.7-0.2c0.9,0,1.8-0.2,2.8-0.3
	c0.4,0,0.8,0,1.2-0.1c0.4-0.1,0.9-0.2,1.3-0.2c0.6,0,1.2,0,1.7,0.1c0.6,0.1,1.4,0.1,2.1,0c0.6-0.1,1.1,0.2,1.8,0.2
	c0.6,0,1.1,0,1.7,0c0.6,0,1.2,0.2,1.8,0.2c0.6,0,1.2,0.1,1.8,0.2c0.7,0.1,1.2,0.1,1.9,0.4c0.3,0.1,0.5,0.2,0.7,0.4
	c0.3,0.2,0.6,0.1,0.9,0.2c0.3,0.1,0.5,0.1,0.8,0.2c0.4,0.1,0.6,0.3,1,0.3c0.5,0,0.9-0.2,1.3-0.2c0.2,0,0.6,0.1,0.7-0.1
	c0.1-0.3-0.3-0.4-0.4-0.5c-0.2-0.1-0.4-0.2-0.7-0.2c-0.3,0-0.5,0-0.7,0.1c-0.1,0.1,0,0.1-0.2,0.2c-0.1,0-0.3,0-0.4,0
	c-0.3-0.1-0.5-0.2-0.8-0.4c-0.5-0.3-1-0.6-1.6-0.7c-0.3-0.1-0.5,0-0.8-0.1c-0.3-0.1-0.5-0.2-0.7-0.3c-0.3-0.1-0.5-0.2-0.8-0.3
	c-0.3-0.1-0.6,0-0.9-0.1c-0.7,0-1.4-0.2-2.1-0.3c-0.9-0.1-1.9-0.2-2.8-0.3c-0.4-0.1-0.9-0.2-1.3-0.2c-0.3,0-1.1,0.1-1.2-0.2
	c0.3-0.3,1.2-0.2,1.6-0.1c0.5,0.1,1.1,0,1.6,0c0.6,0,1.3,0.1,1.9,0.1c0.6,0,1.2,0.3,1.8,0.3c1,0.1,2.1,0,3.1,0.3
	c0.5,0.1,1,0.2,1.6,0.3c0.2,0.1,1,0.4,1.1,0.2c-0.1-0.2-0.2-0.3-0.4-0.5c-0.3-0.2-0.5-0.3-0.8-0.5c-0.2-0.2-0.5-0.3-0.8-0.4
	c-0.2-0.1-0.4-0.4-0.7-0.5c-0.5-0.3-1.1-0.7-1.6-0.5c-0.5,0.2-1,0.4-0.7-0.3c0.1-0.3,0.3-0.6,0-0.9c-0.2-0.3-0.5-0.3-0.9-0.3
	c-0.3-0.1-0.5-0.1-0.8-0.2c-0.4-0.1-0.4,0.1-0.8-0.1c-0.5-0.3-0.6-0.8-1-0.9c-1.2-0.4-2.9-0.3-4.4-0.5c-0.6-0.1-1.1,0.2-1.7,0.2
	c-0.4,0-0.8-0.1-1.3-0.1C26.1,53.6,25.6,53.6,25,53.6z"/>
<path class="st1" d="M12.7,54.3c-0.1-0.3,1.2-0.5,1.4-0.6c0.5-0.1,1.1,0,1.6-0.1c1.2-0.2,2.3-0.7,3.5-0.8c0.5,0,1.1,0.1,1.6,0
	c0.2,0,0.5-0.2,0.7-0.2c0.3,0,0.8,0,0.4,0.3c-0.5,0.2-1.2,0.1-1.7,0.1c-0.6,0.1-1.1,0.1-1.6,0.3c-0.6,0.3-1,0-1.6,0.1
	c-0.5,0.1-1.1,0.2-1.6,0.3c-0.2,0-0.4,0.1-0.7,0.2c-0.3,0.1-0.5,0-0.8,0C13.7,54.1,13,54.5,12.7,54.3C12.7,54.3,12.7,54.3,12.7,54.3
	"/>
<path class="st1" d="M8,66.3c0.2,0,0.6-0.1,0.7,0c0.2,0.1,0.1,0.5,0,0.7c-0.1,0.2-0.4,0.4-0.4,0.7c0,0.2,0.3,0.4,0.3,0.6
	c0.2,0.5,0.2,1.1,0.2,1.7c0,1,0,2-0.1,3c0,0.9,0.1,1.9,0.1,2.8c0,0.7-0.1,1.4-0.1,2.1c0,1.3,0.1,2.7,0,4c-0.1,0.7,0,1.4,0,2.2
	c0,0.7,0,1.3,0,2c0,0.5,0,1.1,0,1.6c1.2-0.1,2.5,0,3.7,0c0-0.1,0-0.3,0-0.3c0-0.1,0.1-0.2,0.2-0.2c0.1-0.1,0.2-0.1,0.3-0.2
	c0.1,0,0.2,0,0.3,0c0.1,0,0.2,0.1,0.4,0c0.1,0,0.2-0.1,0.3-0.2c0.1-0.1,0.2-0.1,0.4-0.1c0.1,0,0.1-0.1,0.2-0.1c0.1,0,0.1,0,0.2-0.1
	c0.1,0,0.2-0.1,0.4-0.1c0.1,0,0.3,0,0.4,0c0.2-0.1,0.3-0.2,0.5-0.2c0.1,0,0.3-0.1,0.4-0.1c0.1,0,0.2-0.1,0.4-0.2c0,0,0.1,0,0.1,0
	c0.1,0,0.1-0.1,0.2,0c0.2,0,0.2,0.2,0.3,0.3c0,0,0.1,0.1,0.1,0.1c0,0.1,0,0.2,0,0.3c0,0.3,0,0.7,0,1c0.1,0,0.2,0,0.3,0
	c0-0.2-0.1-0.5-0.1-0.7c0-0.1,0.1-0.3,0.1-0.4c0-0.1,0-0.3,0-0.4c0-0.1,0-0.2,0.1-0.3c0.1-0.1,0.2-0.1,0.4-0.1c0.1,0,0.2,0,0.4,0
	c0.1,0,0.3,0,0.4,0c0,0,0.1-0.1,0.2-0.1c0.1,0,0.2,0,0.3,0c0.1,0,0.2,0,0.3,0.1c0,0.1,0,0.3,0.1,0.4c0,0.3,0,0.6,0,0.9
	c0,0.1,0,0.3,0,0.4c0,0.1,0,0.1,0,0.2c0,0.1,0,0.1,0,0.2c0,0,0,0,0,0c0.1,0,0.1,0,0.2,0l0,0c0-0.1,0-0.2,0-0.3c0-0.1,0-0.3,0.1-0.4
	c0-0.1,0-0.1,0-0.2c0-0.1,0-0.1,0-0.2c0-0.1,0-0.3,0-0.4c0-0.1,0-0.3,0-0.4c0-0.1,0.1-0.2,0.2-0.3c0.1-0.1,0.3-0.1,0.4-0.1
	c0.1,0,0.3,0,0.4,0c0.1,0,0.2,0,0.3,0h0c0,0,0.1,0,0.1,0c0.1,0,0.1,0,0.2,0c0.2,0,0.4,0,0.5,0c0.1,0,0.2,0.1,0.2,0.2
	c0,0.1,0,0.2,0,0.2c0,0.1,0,0.2,0,0.3c0,0.2,0.1,0.3,0,0.5c0,0.1-0.1,0.2-0.1,0.3c-0.1,0.1,0,0.1,0,0.2c0,0.2,0,0.4-0.1,0.5
	c0,0.1,0,0.1,0,0.2c1.4,0,2.8,0,4.2,0c1.6,0,3.2,0,4.8,0c0-0.4-0.1-0.8-0.1-1.3c0-0.7,0.2-1.3,0.3-2c0.1-0.7-0.1-1.3-0.1-2
	c0-0.5,0.2-1.1,0.2-1.6c0-0.6-0.2-1-0.2-1.6c0-0.6,0.1-1.2,0.1-1.8c-0.1-1.1,0.1-2.2,0-3.2c0-0.6,0.2-1,0.2-1.6
	c-0.1-0.6-0.3-0.9-0.2-1.5c0-0.6,0.1-1.2,0-1.8c-0.1-0.7,0.1-1.3,0.1-2c0-0.5-0.1-0.9-0.1-1.5c0-0.5,0.1-1.1,0.1-1.5
	c-0.1-0.9-1.7-0.6-2.6-0.7c-0.5,0-1.1,0-1.5-0.1c-0.8-0.2-0.5-0.4,0.2-0.4c0.5,0,1.1-0.2,1.6-0.1c0.6,0,1.2,0.1,1.8,0.1
	c1.3,0,2.5,0.2,3.7,0.3c1,0.1,1.9,0.2,2.9,0.3c0.3,0.1,1.4,0.1,0.7-0.4c-0.3-0.2-1.1-0.1-1.5-0.2c-1.9-0.4-3.8-0.4-5.7-0.8
	c-0.5-0.1-1-0.1-1.4-0.2c-0.3-0.1-0.9-0.3-1.2-0.3c-0.3,0-0.3,0.2-0.6,0.2c-0.1,0-0.4-0.2-0.5-0.2c-0.4-0.1-1.3-0.1-1-0.7
	c0.6-0.2,1.1,0,1.7,0.1c1.1,0.1,2.2-0.1,3.3-0.1c0.4,0,1.4,0,0.6-0.6c-0.3-0.2-1.1,0-1.5-0.1c-1.1-0.1-2.2-0.1-3.3-0.1
	c-0.4,0-1-0.2-1.3,0.1c-0.2,0.2-0.2,0.6-0.5,0.7c-0.3,0.1-0.7-0.2-1.1-0.1c-0.1,0-0.5,0-0.6,0.2c-0.1,0.1,0.1,0.2,0,0.3
	c-0.1,0.1-0.2,0-0.3,0c-0.3-0.1-0.4-0.1-0.7-0.1c-0.5,0.1-1.1,0-1.6,0.1c-0.2,0-0.5,0-0.8,0c-0.3,0.1-0.5,0.3-0.8,0.3
	c-0.3,0-0.6-0.2-1-0.1c-0.4,0.1-0.7,0.3-1.1,0.2c-0.3-0.1-0.4-0.3-0.7-0.1c-0.2,0.1-0.3,0.3-0.6,0.3c-0.3,0-0.4-0.2-0.7,0
	c-0.1,0.1-0.1,0.2-0.2,0.3c-0.1,0.1-0.2,0-0.3,0c-0.3,0-0.3,0.2-0.5,0.3c-0.2,0.1-0.4,0.2-0.6,0.3c-0.4,0.2-0.8,0.1-1.1,0.3
	c-0.3,0.1-0.6,0.5-1,0.5c-0.3,0-0.8-0.2-1.1-0.4c-0.7-0.3-1,0-1.5,0.4c-0.2,0.2-0.4,0.3-0.5,0.5c-0.1,0.1-0.1,0.2-0.2,0.2
	c-0.1,0.1-0.3,0-0.4,0.1c-0.3,0.1-0.1,0.3-0.1,0.6C7.7,65.7,7.2,66.3,8,66.3z M17.4,84.8c-0.1,0.3-0.4,0.4-0.6,0.4
	c-0.1,0-0.3,0-0.4,0.1c-0.1,0-0.2,0.1-0.3,0.1c-0.1,0-0.1,0-0.2,0c-0.1,0-0.1,0-0.2,0c-0.1,0-0.2,0-0.3-0.2c0-0.1,0.1-0.2,0.1-0.4
	c0-0.1,0-0.2,0-0.2c0-0.1-0.1-0.2-0.1-0.3c0-0.1,0-0.1,0-0.2c0,0,0-0.1,0-0.2c-0.1-0.1-0.2,0.1-0.2,0.1c0,0.1,0.1,0.2,0,0.4
	c0,0.1-0.2,0.2-0.1,0.4c0.1,0.1,0.1,0.2,0.1,0.3c0,0.1,0,0.1-0.1,0.2c-0.1,0-0.1,0.1-0.1,0.1c-0.1,0.1-0.2,0.1-0.3,0.1
	c-0.1,0-0.2,0-0.3,0.1c-0.1,0.1-0.2,0.1-0.3,0.1c-0.1,0-0.2,0-0.3,0c-0.1,0-0.2-0.1-0.3,0c-0.1,0.1-0.1,0.2-0.1,0.3
	c-0.1,0.1-0.1,0.2-0.2,0.2c-0.1,0.1-0.2,0.1-0.3,0.2c-0.1,0.1-0.2,0.1-0.4,0c-0.1-0.1-0.1-0.2-0.1-0.3c0-0.1,0.1-0.2,0.1-0.4
	c0.1-0.1,0-0.3,0-0.4c0-0.1,0-0.1,0-0.2c0-0.1,0-0.1,0-0.2c0-0.1,0.1-0.2,0-0.3c0-0.1,0-0.1-0.1-0.1c0-0.1,0-0.1,0-0.2
	c0-0.1,0.1-0.2,0.2-0.3c0.1-0.1,0.2-0.1,0.3-0.2c0.1,0,0.3,0,0.4,0c0.1,0,0.3,0,0.4-0.1c0.1,0,0.1-0.1,0.2-0.1c0.1,0,0.1,0,0.2-0.1
	c0.1,0,0.3,0,0.4,0c0.1,0,0.2-0.1,0.3-0.1c0.1,0,0.1,0,0.1-0.1c0.1-0.1,0.2,0,0.4,0c0.1,0,0.2,0,0.3-0.1c0.1-0.1,0.2-0.1,0.3-0.2
	c0.1-0.1,0.3-0.1,0.4-0.1c0.1,0,0.3-0.1,0.4-0.1c0.1,0,0.2,0,0.4,0c0.1,0,0.2,0,0.2,0.1c0.1,0.1,0.1,0.2,0.1,0.3c0,0.1,0,0.3,0,0.4
	c0,0.1,0,0.3,0,0.4C17.4,84.3,17.4,84.6,17.4,84.8z M12.6,82.5c0-0.2,0-0.3,0-0.5c0-0.1,0-0.3,0-0.4c0-0.1,0.1-0.3,0.2-0.4
	c0.1-0.1,0.3-0.1,0.4-0.1c0.1,0,0.3,0.1,0.4,0c0.2-0.1,0.4-0.2,0.6-0.3h0c0.1-0.1,0.2-0.1,0.3-0.2c0.1,0,0.1-0.1,0.2-0.1
	c0.1,0,0.1,0,0.2,0c0.1,0,0.2,0,0.3,0.1c0.2,0.2,0.1,0.6,0.1,0.8c0,0.3,0,0.7,0,1c0,0.1,0,0.3-0.1,0.4c-0.1,0.1-0.3,0.1-0.4,0.1
	c-0.2,0-0.4,0.2-0.7,0.2c-0.1,0-0.2,0-0.3-0.1c-0.1-0.1-0.1-0.2-0.1-0.4c0-0.3,0-0.5,0-0.8c0-0.1,0-0.1,0-0.2c0,0-0.1-0.1-0.1,0
	c0,0,0,0.1-0.1,0.2c0,0.1,0,0.1,0,0.2c0,0.1,0,0.3,0,0.4c0,0.1,0,0.3,0,0.4c0,0.1,0,0.2,0,0.4c0,0.1,0,0.1-0.1,0.2
	c0,0-0.1,0.1-0.1,0.1c-0.2,0.2-0.4,0.3-0.6,0.2c-0.1,0-0.1-0.2-0.1-0.3c0-0.2,0-0.3,0-0.5C12.6,82.8,12.6,82.6,12.6,82.5z M13.6,77
	c0,0.3,0,0.8-0.3,0.9C13.2,78,13,78.1,12.8,78c-0.2-0.1-0.2-0.2-0.2-0.4c0-0.2,0.1-0.4,0.1-0.6c0-0.2-0.1-0.3-0.1-0.5
	c0,0,0-0.1,0-0.1c0-0.2,0.1-0.3,0.1-0.5c0-0.2,0.1-0.3,0.3-0.3c0.2-0.1,0.3-0.1,0.5,0c0.2,0.1,0.2,0.3,0.2,0.4c0,0.1,0,0.2,0,0.3
	c0,0.1-0.1,0.1-0.1,0.2C13.5,76.6,13.6,76.8,13.6,77z M12.6,80.2c0-0.2,0-0.3,0-0.5c0-0.2,0-0.3,0-0.5v0c0-0.1,0-0.3,0-0.4
	c0-0.1,0-0.2,0.1-0.3c0.2-0.2,0.4-0.3,0.6-0.2c0.3,0.1,0.2,0.5,0.2,0.7c0,0.1,0,0.3,0,0.4c0,0.1,0,0.1,0,0.2c0,0.1,0,0.1,0,0.2
	c0,0.1,0,0.1,0,0.2c0,0.1,0,0.1,0,0.2c0,0.1,0,0.2-0.1,0.3c-0.1,0.2-0.3,0.4-0.5,0.5c-0.1,0-0.2,0.1-0.3,0c-0.1-0.1-0.1-0.2-0.1-0.3
	C12.6,80.4,12.6,80.3,12.6,80.2z M13.9,76.3c0-0.1,0-0.2,0-0.3c0-0.3,0-0.8,0.3-0.8c0.1,0,0.2,0,0.2,0c0.1,0,0.1-0.1,0.2-0.1
	c0.1,0,0.3-0.1,0.5-0.1c0.2,0,0.1,0.3,0.1,0.5c0,0.1,0,0.2,0,0.3c0,0.1,0,0.2,0,0.3c0,0.3,0.1,0.7-0.1,1c-0.2,0.3-0.5,0.4-0.8,0.5
	c-0.2,0-0.3,0.1-0.5,0c-0.2-0.1-0.1-0.3-0.1-0.4c0-0.2,0.1-0.3,0.1-0.5C13.9,76.4,13.9,76.4,13.9,76.3z M14,78.6
	c-0.1-0.1-0.1-0.2-0.1-0.3c0-0.1,0.1-0.2,0.1-0.3c0.1-0.1,0.1-0.1,0.3-0.1c0.1,0,0.3,0,0.4,0c0.2,0,0.5-0.3,0.6,0c0,0.1,0,0.2,0,0.3
	c0,0.1,0,0.3,0,0.4c0,0.1,0,0.2,0,0.4c0,0.1,0.1,0.3,0.2,0.3c0.2,0.1,0.2-0.1,0.2-0.2c0.1-0.3,0.1-0.5,0.1-0.8
	c0-0.1-0.1-0.2-0.1-0.3c0-0.1,0-0.3,0.1-0.4c0.1-0.3,0.5-0.2,0.7-0.2c0.1,0,0.3-0.1,0.4-0.1c0.1,0,0.3,0,0.4,0c0.1,0,0.2,0,0.2,0.1
	c0,0.1,0,0.3,0,0.4c0,0.1,0,0.2,0,0.3c0,0.1,0.1,0.3,0.1,0.4c0,0.1-0.1,0.2-0.1,0.3c0,0.1,0,0.2,0,0.3c0,0.1,0,0.2,0,0.3
	c-0.1,0.1-0.2,0.2-0.4,0.2c-0.1,0-0.2,0.1-0.4,0.1c-0.3,0.1-0.5,0.2-0.8,0.3c-0.1,0-0.2,0-0.3-0.1c-0.1-0.1-0.1-0.1-0.2-0.1
	c-0.1,0.1-0.1,0.2-0.2,0.2c-0.1,0.1-0.2,0.1-0.3,0.2c0,0-0.1,0-0.2,0c-0.1,0-0.1,0-0.2,0c-0.1,0-0.2,0.1-0.3,0.1
	c-0.3,0.1-0.4-0.1-0.4-0.4c0-0.1,0-0.2,0-0.3c0-0.1,0.1-0.3,0.1-0.4c0.1-0.1,0.2-0.2,0.1-0.3C14.1,78.8,14,78.7,14,78.6z M15.8,75
	c0-0.2,0.2-0.3,0.4-0.4c0.1,0,0.2,0,0.3-0.1c0.1,0,0.3-0.1,0.4-0.1c0.1,0,0.1,0,0.2-0.1c0.1,0,0.2,0,0.3,0c0.1,0.1,0.1,0.2,0.1,0.3
	c0,0.3,0,0.5,0,0.8c0,0.1,0,0.3,0,0.4c0,0.1,0.1,0.2,0.2,0.1c0.1-0.1,0.1-0.1,0.1-0.2c0-0.1,0-0.2,0.1-0.3c0,0,0,0,0,0
	c0.1-0.1,0.1-0.2,0.2-0.2c0.1-0.1,0.1-0.1,0-0.2c0-0.1-0.1-0.2-0.1-0.3c0-0.1-0.1-0.2-0.1-0.3c-0.1-0.3,0.3-0.3,0.5-0.3
	c0.2,0,0.5,0,0.7,0c0.1,0,0.2-0.1,0.3-0.1c0.1,0,0.1-0.1,0.1-0.1c0,0,0.1,0,0.1,0c0.1,0,0.2,0.1,0.2,0.1c0.1,0.1,0,0.1,0.1,0.2
	c0,0.1,0,0.1,0,0.2c0,0.1,0,0.3-0.1,0.4c0,0.1-0.1,0.3-0.1,0.4c0,0.1,0.1,0.3,0.2,0.3c0.3,0.1,0.3-0.3,0.3-0.5c0-0.1,0-0.2,0-0.3
	c0-0.1,0-0.2,0-0.3c0-0.1,0-0.2,0-0.3c0-0.1,0-0.2,0.1-0.3c0.1-0.1,0.2,0,0.3,0c0.1,0,0.3,0,0.4,0c0.1,0,0.2,0,0.3-0.1
	c0.1,0,0.2,0,0.4-0.1c0.2,0,0.5-0.1,0.7,0c0.1,0,0.2,0.1,0.2,0.2c0.1,0.1,0,0.3,0,0.4c0,0.1,0,0.3,0,0.4c0,0.1,0,0.2,0,0.3
	c0,0.1-0.1,0.2-0.1,0.3c-0.1,0.1-0.2,0.1-0.1,0.2c0,0.1,0.1,0.2,0,0.2c-0.1,0.1-0.2,0.1-0.4,0.1c-0.1,0-0.3,0.1-0.4,0.1
	c-0.2,0.1-0.4,0-0.5,0.1c-0.1,0.1-0.2,0.1-0.4,0.1c-0.1,0-0.2,0.1-0.3,0.1c-0.1,0-0.2,0-0.3-0.1c-0.1-0.1-0.2-0.2-0.3-0.2
	c0,0-0.1,0.1-0.1,0.1c0,0-0.1,0-0.1,0.1c-0.1,0-0.2,0.1-0.3,0.1c-0.1,0-0.2,0-0.3,0c-0.1,0-0.2,0.1-0.3,0.1c-0.1,0-0.2,0.1-0.3,0.1
	c-0.1,0-0.3,0.1-0.4,0c-0.1,0-0.2-0.1-0.3-0.1c-0.1,0-0.2,0-0.3,0.1c-0.1,0-0.2,0.1-0.3,0.1c-0.1,0-0.2,0-0.3,0.1
	c-0.1,0-0.2,0.1-0.3,0.1c-0.2,0.1-0.4,0.1-0.6,0c-0.1,0-0.2-0.2-0.2-0.3c0-0.1,0-0.2,0-0.4c0-0.1,0-0.2,0-0.4c0-0.1-0.1-0.2,0-0.3
	s0.1-0.2,0.1-0.3C15.8,75.2,15.8,75.1,15.8,75z M17.5,80.4c-0.1,0.1-0.1,0.3-0.1,0.4c0,0.2,0,0.3,0,0.4c0,0.1,0,0.3,0,0.4
	c0,0.1,0,0.3,0,0.4c0,0.1,0,0.3-0.1,0.3c-0.1,0.1-0.3,0.1-0.4,0.1c-0.1,0-0.3,0.1-0.4,0.1c-0.1,0-0.1,0.1-0.2,0.1
	c-0.1,0-0.2,0-0.2,0c-0.1,0-0.2,0-0.3-0.1c-0.1,0-0.2-0.1-0.3-0.2c0-0.1,0.1-0.2,0.1-0.3c0.1-0.3,0.1-0.5,0.1-0.8c0-0.2,0-0.3,0-0.5
	c0-0.1,0-0.1,0-0.2c0-0.1,0-0.1,0-0.2c0-0.1,0.2-0.2,0.3-0.2c0.1,0,0.3-0.1,0.4-0.1C16.7,80,17,80,17.2,80c0.1,0,0.1,0,0.2,0
	c0.1,0,0.2,0,0.3,0c0.1,0,0.1-0.1,0.2-0.1c0.1,0,0.2,0,0.3,0c0.1,0,0.3-0.1,0.4-0.1c0.1,0,0.2,0,0.3,0c0.1,0,0.1,0,0.2,0
	c0.1,0,0.2,0,0.2,0c0.1,0,0.2,0,0.3,0c0.1,0,0.2,0,0.2,0.2c0,0.2,0,0.3,0,0.5c0,0.2,0,0.4,0,0.6c0,0.2,0,0.4,0,0.6
	c0,0.2,0,0.2-0.2,0.3c-0.1,0-0.1,0.1-0.2,0.1c-0.1,0-0.3,0.1-0.4,0.1c-0.3,0-0.6,0.1-0.8,0.2c-0.2,0.1-0.6,0.2-0.6-0.2
	c-0.1-0.3,0.2-0.6,0.2-0.9c0-0.2,0.1-0.6-0.1-0.8C17.8,80.3,17.6,80.3,17.5,80.4z M22.6,82.6c0,0.1,0,0.2,0,0.2c0,0.1,0,0.2,0,0.3
	c0,0.2,0,0.3,0,0.4c0,0.1-0.2,0.3-0.1,0.4c0,0.1,0.1,0.2,0.1,0.3c-0.1,0.2-0.5,0.1-0.6,0.1c-0.1,0-0.1,0-0.2,0c-0.1,0-0.1,0-0.2,0
	c-0.1,0-0.2,0.1-0.3,0.2c-0.2,0.1-0.3,0.1-0.5,0.1c0,0-0.1,0-0.1,0c0,0-0.1,0-0.1,0c-0.1,0-0.1,0-0.2,0c-0.3,0-0.5,0.1-0.7,0.1
	c-0.1,0-0.3,0-0.4,0c-0.1,0-0.3,0.1-0.4,0.1c-0.1,0-0.3,0.1-0.4,0.1c-0.1,0-0.3-0.1-0.4-0.2c-0.1-0.1-0.1-0.2-0.1-0.4
	c0-0.1,0-0.2,0-0.2c0-0.1,0-0.2,0-0.3c0-0.2,0.1-0.3,0.1-0.5c0-0.1-0.1-0.3,0-0.4c0-0.2,0.1-0.4,0.3-0.5c0.1-0.1,0.3,0,0.4,0
	c0.2,0,0.4,0,0.5,0c0.1,0,0.3-0.1,0.4-0.1c0.1,0,0.2,0,0.4,0c0.2,0.1,0.1,0.3,0.1,0.4c0,0.1,0,0.3,0,0.4c0,0.1-0.1,0.2-0.1,0.4
	c0,0.1,0.1,0.2,0.1,0.3c0,0.1,0,0.3,0.1,0.3c0.1,0.1,0.2-0.3,0.2-0.3c0-0.2,0-0.3,0-0.5c0-0.2,0-0.3,0-0.5c0-0.1,0-0.3,0.1-0.4
	c0.1-0.1,0.2-0.1,0.4-0.1c0.2,0,0.3,0,0.5,0c0.1,0,0.3,0,0.4,0c0.2,0,0.3-0.1,0.5-0.1c0.1,0,0.1,0,0.2,0c0.1,0,0.1,0,0.2,0.1
	c0.1,0,0.2,0.1,0.2,0.2C22.6,82.4,22.6,82.5,22.6,82.6z M22.5,81.2c-0.1,0.2-0.2,0.3-0.4,0.3c-0.1,0-0.3,0-0.4,0
	c-0.2,0-0.3,0.1-0.4,0.2c-0.1,0.1-0.2,0.2-0.4,0.2c-0.1,0-0.3,0-0.4,0c-0.1,0-0.3,0-0.3-0.1c-0.1-0.1-0.1-0.2-0.1-0.3
	c-0.1-0.2,0-0.5,0-0.7c0-0.2,0.1-0.3,0.1-0.5c0-0.2-0.1-0.7,0.2-0.9c0.1-0.1,0.3,0,0.5,0c0.2,0,0.3,0,0.5,0c0.1,0,0.2,0,0.3,0
	c0.1,0,0.1,0,0.2,0c0.1,0,0.1,0,0.2,0c0.1,0,0.4-0.1,0.5,0c0.1,0.1,0.1,0.2,0.1,0.3c0,0.1,0,0.2,0,0.4c0,0.1,0,0.3,0,0.4
	C22.6,80.8,22.6,81,22.5,81.2z M24.9,86.7c0,0.1,0,0.3,0,0.4c0,0.1-0.2,0.2-0.3,0.2c-0.2,0-0.3,0-0.5,0c-0.1,0-0.1,0-0.2,0
	c-0.1,0-0.1,0-0.2,0c-0.1,0-0.2,0-0.4,0c-0.1,0-0.3,0-0.3-0.1c-0.1-0.1-0.2-0.2-0.2-0.3c0-0.1,0-0.2,0-0.4c0-0.3-0.1-0.5,0-0.8
	c0-0.1,0-0.3,0-0.4c0-0.1,0-0.2,0.1-0.3c0.1-0.1,0.1-0.2,0.2-0.2c0.1-0.1,0.3-0.1,0.4-0.1c0.1,0,0.3,0,0.4,0c0.1,0,0.3,0,0.4,0h0
	c0.1,0,0.3,0,0.4,0.1c0.1,0.1,0.1,0.2,0.1,0.3c0,0.2,0,0.4,0,0.5c0,0.1,0,0.1,0,0.2c0,0.1,0,0.2,0,0.3
	C24.9,86.4,24.9,86.6,24.9,86.7z M24.9,84.1c0,0.1,0,0.2-0.2,0.3c-0.1,0-0.2,0.1-0.3,0.1c-0.1,0-0.1,0-0.2,0c-0.1,0-0.1,0-0.2,0
	c-0.1,0-0.3,0-0.4,0c-0.2,0.1-0.6,0.2-0.7-0.1c-0.1-0.3,0-0.5,0-0.8c0-0.3,0-0.5,0-0.8c0-0.2,0-0.6,0.2-0.7c0.1-0.1,0.2,0,0.3,0
	c0.1,0,0.2,0,0.4,0c0.1,0,0.2,0,0.4-0.1c0.1,0,0.1,0,0.2,0c0.1,0,0.1,0,0.2,0c0.2,0,0.4,0,0.5,0.3c0,0.1,0,0.3,0,0.4
	c0,0.1,0,0.1,0,0.2c0,0.1,0,0.1,0,0.2c0,0.2,0,0.3,0,0.5c0,0.1,0,0.1,0,0.2C24.9,83.9,24.9,84,24.9,84.1z M24.9,80.5
	c0,0.1,0,0.3,0,0.4c0,0.2,0,0.3,0,0.4c-0.1,0.3-0.4,0.1-0.6,0.1c-0.1,0-0.2,0-0.3,0.1c-0.1,0-0.2,0.1-0.3,0.2
	c-0.2,0.1-0.5,0.1-0.7,0c-0.1-0.1-0.2-0.1-0.2-0.2c0-0.1,0-0.1,0-0.2c0-0.1,0-0.1,0-0.2c0-0.1,0-0.1,0-0.2c0-0.1,0-0.1,0-0.2
	c0-0.1,0.1-0.2,0.1-0.4c0-0.2-0.1-0.5,0-0.7c0-0.1,0.1-0.2,0.2-0.3c0.1,0,0.2,0,0.2,0c0.1,0,0.1,0,0.2,0c0.1,0,0.3,0,0.4,0
	c0.1,0,0.2,0,0.4,0c0.1,0,0.3-0.1,0.5,0c0.2,0,0.2,0.2,0.3,0.4C25,80,24.9,80.2,24.9,80.5z M25,78.2c0,0.1,0,0.3-0.1,0.4
	c0,0.1-0.2,0.2-0.2,0.2c-0.1,0-0.2,0-0.3,0c-0.1,0-0.1,0-0.2,0c-0.1,0-0.2,0-0.2,0c-0.1,0-0.2,0-0.4,0c-0.2,0-0.4,0-0.6-0.2
	c0,0-0.1-0.1-0.1-0.1c0,0-0.1-0.1-0.1-0.1c-0.1-0.1,0.1-0.6-0.2-0.5c-0.1,0-0.1,0.2-0.1,0.3c0,0.1-0.1,0.1-0.2,0.2
	c-0.1,0-0.2,0.1-0.3,0.1c-0.1,0.1-0.2,0.1-0.3,0.1c-0.2,0.1-0.4,0.2-0.6,0.2c-0.1,0-0.2,0-0.4,0c-0.1,0-0.2,0-0.3,0
	c0,0-0.1,0-0.1-0.1c0,0-0.1-0.1-0.1-0.1c-0.1,0-0.2,0.1-0.3,0.1c-0.1,0.1-0.3,0.1-0.4,0.1c-0.1,0-0.1,0-0.2,0c-0.1,0-0.2,0-0.3,0.1
	c-0.1,0-0.3,0-0.4,0.1c-0.1,0.1-0.2,0.1-0.3,0.1c-0.1,0-0.2,0-0.3-0.1c-0.1-0.1-0.2-0.2-0.2-0.3c-0.1-0.3-0.1-0.5,0-0.8
	c0-0.1,0-0.2,0.1-0.2c0-0.1,0.1-0.2,0.1-0.2c0-0.1,0-0.2,0-0.3c0-0.1,0-0.1,0-0.2c0-0.1,0-0.1,0-0.2c0-0.1,0.1-0.1,0.2-0.2
	c0.1,0,0.2,0,0.3,0c0.1,0,0.2,0,0.3,0c0.1,0,0.2,0,0.3,0c0.2,0,0.5-0.1,0.7-0.1c0.3,0,0.3,0.4,0.3,0.6c0,0.1,0,0.3,0,0.4
	c0,0.1,0,0.2,0,0.3c0,0.1,0,0.3,0.1,0.2c0,0,0-0.1,0-0.2c0-0.1,0-0.1,0.1-0.2c0.1-0.3,0-0.5,0-0.8c0-0.2,0-0.5,0.2-0.6
	c0.1-0.1,0.2-0.1,0.3-0.1c0.1,0,0.3,0,0.4,0c0.2,0,0.4,0,0.7-0.1c0.2,0,0.5,0,0.7,0.1c0,0,0.1,0,0.2,0.1c0.1,0.1,0.1,0.1,0.1,0.3
	c0,0.2-0.1,0.4,0,0.6c0.1,0,0.1-0.3,0.1-0.3c0-0.1,0-0.3,0-0.4c0-0.1,0-0.1,0-0.2c0-0.1,0.1-0.1,0.1-0.1c0.1-0.1,0.2-0.1,0.2-0.1
	c0.2,0,0.4,0,0.5,0c0.2,0,0.3,0,0.5,0c0.1,0,0.3,0,0.4,0c0.1,0,0.2,0.1,0.2,0.2c0.1,0.2,0,0.5,0.1,0.8C25,77.7,25.1,78,25,78.2z
	 M25.1,74.7c0,0.1,0,0.3-0.1,0.4c0,0.1,0,0.1,0,0.2c0,0.1,0,0.1,0,0.2c0,0.2,0,0.3-0.2,0.3c-0.1,0-0.1,0-0.2,0c-0.1,0-0.1,0-0.2,0
	c-0.1,0-0.3,0-0.4,0.1c-0.1,0.1-0.2,0.1-0.4,0.2c-0.1,0-0.2,0-0.4,0c-0.1,0-0.2,0-0.3-0.1c-0.1-0.2-0.1-0.5-0.2-0.7
	c-0.1-0.3,0.1-0.5,0.1-0.8c0-0.1,0.1-0.2,0-0.3c0-0.1,0-0.2,0-0.4c0.1-0.2,0.4-0.2,0.6-0.2c0.2,0,0.4,0.2,0.6,0.1
	c0.2-0.1,0.4-0.1,0.6-0.1h0c0.2,0.1,0.2,0.2,0.3,0.4C25.1,74.2,25.1,74.5,25.1,74.7z M14.5,64.2c0.2,0,0.5-0.1,0.7-0.2
	c0.3-0.1,0.6-0.2,1-0.3c0.6,0,1.1-0.2,1.7-0.4c0.3-0.1,0.6-0.1,1-0.2c0.3-0.1,0.7-0.2,1-0.2c0.4-0.1,0.7-0.1,1-0.2
	c0.2-0.1,0.5-0.1,0.8-0.1c0.1,0,0.3,0,0.4,0.1c0.1,0.2-0.4,0.4-0.5,0.4c-0.3,0.1-0.6,0.1-0.9,0.2c-0.3,0.1-0.5,0.2-0.7,0.3
	c-0.3,0-0.5,0.1-0.8,0.2c-0.3,0.1-0.5,0.2-0.8,0.2C18.1,64,17.8,64,17.5,64c-0.3,0.1-0.5,0.1-0.8,0.1c-0.3,0-0.5,0.1-0.8,0.1
	c-0.2,0-0.3,0-0.5,0c-0.2,0-0.3,0.1-0.5,0.1c-0.1,0-0.4,0.1-0.5,0C14.2,64.3,14.4,64.3,14.5,64.2z M12.8,65.1
	c0.1-0.2,0.5-0.1,0.7-0.2c0.3-0.1,0.6,0.1,0.9,0c0.1,0,0.2-0.1,0.4-0.1c0.2,0,0.4,0,0.5,0c0.3,0,0.7,0,1-0.1
	c0.3-0.1,0.6-0.2,0.9-0.2c0.3-0.1,0.7-0.1,1-0.1c0.3-0.1,0.6-0.1,0.9-0.3c0.6-0.2,1.3-0.3,1.9-0.5c0.6-0.2,1.2-0.4,1.9-0.6
	c0.2-0.1,0.6-0.1,0.6,0.3c0,0.4-0.3,0.4-0.6,0.4c-0.6,0.1-1.2,0.3-1.8,0.5c-0.3,0.1-0.6,0.1-0.9,0.2c-0.3,0.1-0.5,0.1-0.8,0.2
	c-0.3,0.1-0.6,0.1-0.9,0.2c-0.3,0.1-0.6,0.2-0.8,0.2c-0.4,0.1-0.7,0.2-1.1,0.2c-0.4,0.1-0.8,0-1.2,0.1c-0.7,0.1-1.3,0.1-2,0.1
	C13.3,65.4,12.7,65.4,12.8,65.1z M23.4,64.2c-0.1,0.3-0.4,0.3-0.6,0.3c-0.2,0-0.5,0.1-0.7,0.2c-0.2,0.1-0.4,0.2-0.6,0.3
	c-0.1,0-0.3,0.1-0.4,0.1c-0.2,0-0.4,0-0.6,0.1c-0.2,0.1-0.4,0.2-0.6,0.3c-0.2,0.1-0.4,0.1-0.6,0.1c-0.5,0.1-0.9,0.2-1.4,0.3
	c-0.5,0.2-1.1,0.3-1.7,0.3c-0.7,0.1-1.5,0.2-2.2,0.2c-0.3,0-0.6,0-0.8,0c-0.2-0.1-0.4-0.3-0.1-0.5c0.3-0.2,0.8,0,1.1,0
	c0.2,0,0.3-0.1,0.5-0.1c0.1,0,0.2,0,0.3,0c0.2,0,0.4-0.1,0.7-0.1c0.1,0,0.3,0,0.4,0c0.3,0,0.5-0.1,0.8-0.1c0.5-0.1,1-0.2,1.5-0.4
	c0.2-0.1,0.3,0,0.4,0c0.1,0,0.2-0.1,0.4-0.1c0.3-0.1,0.6-0.2,0.8-0.2c0.3-0.1,0.6-0.2,0.9-0.2c0.3,0,0.6-0.2,0.9-0.3
	c0.2,0,0.4-0.1,0.5-0.2C22.5,64,23.6,63.6,23.4,64.2z M13.2,66.7c0.2,0,0.4,0.1,0.6,0.1c0.2,0,0.4-0.1,0.6-0.1c0.4,0,0.8,0.1,1.2,0
	l0.2,0c0.2-0.1,0.3-0.1,0.6-0.2c0.3,0,0.6,0,0.9-0.1c0.3-0.1,0.5-0.2,0.8-0.2c0.2,0,0.5-0.1,0.8-0.2c0.3-0.1,0.5-0.2,0.7-0.3
	c0.2-0.1,0.5-0.1,0.8-0.1c0.3-0.1,0.5-0.2,0.8-0.2c0.3-0.1,0.6-0.2,0.9-0.3c0.3-0.1,0.6-0.2,0.8-0.3c0.2,0,0.6-0.1,0.7,0.1
	c0.1,0.4-0.3,0.4-0.5,0.4c-0.3,0-0.5,0.1-0.8,0.2c-0.1,0.1-0.2,0.1-0.4,0.1c-0.1,0-0.3,0-0.4,0.1c-0.1,0.1-0.2,0.1-0.3,0.2
	c-0.1,0-0.3,0-0.4,0c-0.5,0.1-1,0.3-1.5,0.4c-0.6,0.2-1.2,0.3-1.8,0.4c-0.4,0.1-0.8,0.1-1.1,0.2c-0.3,0-0.6,0.1-1,0.1
	c-0.3,0-0.6,0.1-0.9,0.1c-0.1,0-0.3,0-0.4,0c-0.2,0-0.3,0.1-0.5,0.1c-0.3,0-0.7,0-0.8-0.3C12.6,66.8,13,66.7,13.2,66.7z M22.8,68.2
	c-0.2,0-0.3,0-0.5,0.1c-0.1,0-0.3,0.1-0.5,0.1c0,0-0.5,0-0.3-0.4c0.1-0.2,0.3-0.2,0.6-0.2c0.4-0.1,0.8-0.4,1.2-0.1
	C23.4,68,23.2,68.2,22.8,68.2z M23.2,68.7c0,0.2-0.2,0.2-0.3,0.2c-0.1,0-0.3-0.1-0.3-0.2c-0.1-0.2,0.2-0.2,0.3-0.2
	C23.1,68.5,23.2,68.6,23.2,68.7z M23,67.4c-0.4,0.1-0.8,0.2-1.2,0.3c-0.4,0.1-0.7,0.3-1.1,0.3c-0.3,0-0.5,0.1-0.9,0.2
	c-0.2,0-0.3,0-0.5,0.1c-0.2,0-0.3,0.1-0.5,0.2c-0.2,0.1-0.5,0.1-0.8,0.1c-0.6,0.1-1.3,0.3-1.9,0.4c-0.6,0.1-1.3,0-1.8,0.2
	c-0.2,0-0.4,0.1-0.6,0.1c-0.2,0-0.6-0.1-0.7-0.2c-0.2-0.1-0.3-0.3,0-0.4c0.6-0.3,1.2,0,1.8-0.1c0.2-0.1,0.5-0.1,0.8-0.1
	c0.2,0,0.4-0.1,0.5-0.1c0.2,0,0.3,0,0.5,0c0.3,0,0.7-0.1,1-0.2c0.1,0,0.2-0.1,0.4-0.1c0.2-0.1,0.3,0,0.5-0.1c0.3,0,0.5-0.2,0.8-0.2
	c0.3-0.1,0.5-0.1,0.8-0.2c0.2-0.1,0.5-0.1,0.7-0.2c0.2-0.1,0.5-0.2,0.8-0.2c0.3-0.1,0.5-0.1,0.7-0.2c0.2-0.1,0.5-0.2,0.7-0.3
	c0.2,0,0.5,0,0.6,0.2C23.5,67.1,23.2,67.3,23,67.4z M14.1,70c-0.2,0.2-0.5,0.2-0.7,0.2c0,0-0.1,0-0.1,0c-0.2-0.1-0.7-0.2-0.3-0.4
	c0.2-0.1,0.6-0.1,0.9-0.1C14,69.6,14.3,69.7,14.1,70z M23.3,66.2c-0.2,0.1-0.4,0.2-0.7,0.2c-0.3,0-0.5,0.1-0.7,0.2
	c-0.3,0.1-0.4,0.2-0.7,0.3c-0.2,0.1-0.4,0.2-0.6,0.2c-0.2,0-0.5,0.1-0.7,0.1c-0.2,0.1-0.5,0.1-0.7,0.2c-0.2,0.1-0.5,0.1-0.7,0.1
	c-0.2,0-0.4,0.2-0.6,0.2c-0.2,0-0.5,0-0.7,0.1c-0.2,0.1-0.5,0.2-0.7,0.2c-0.4,0.1-0.8,0-1.2,0.1c-0.4,0-0.9,0.1-1.3,0.1
	c-0.2,0-0.7,0.1-0.9-0.1c-0.2-0.3,0.2-0.4,0.4-0.4c0.6-0.1,1.2,0,1.7-0.1c0.3-0.1,0.5-0.1,0.8-0.1c0.3,0,0.5-0.1,0.8-0.1
	c0.5,0,1.1-0.2,1.6-0.4c0.5-0.2,1.1-0.2,1.6-0.4c0.5-0.2,1.1-0.4,1.6-0.5c0.2-0.1,0.5-0.2,0.7-0.3c0.1,0,0.3,0,0.4-0.1
	c0.1,0,0.2-0.1,0.4-0.1C23.3,65.8,23.6,66,23.3,66.2z M12.7,70.6c0.1-0.1,0.3-0.2,0.5-0.2c0.2,0,0.4,0.2,0.2,0.4
	c-0.1,0.1-0.4,0.2-0.5,0.1C12.8,70.8,12.6,70.8,12.7,70.6z M12.4,73.3c0.3-0.1,0.7-0.3,1-0.4c0.8-0.4,1.8-0.5,2.7-0.7
	c0.6-0.1,1-0.3,1.6-0.4c0.6-0.1,1.1-0.2,1.7-0.3c0.6,0,1.1-0.2,1.6-0.2c0.6,0,1.2-0.2,1.8-0.2c0.3,0,0.5,0.1,0.8,0.1
	c0.3,0,0.6,0,0.8-0.1c0.2,0,0.6-0.1,0.7,0.1c0.2,0.3-0.1,0.6-0.1,0.8c-0.1,0.5,0.2,1-0.4,1.3c-0.3,0.1-0.9,0-1.3,0
	c-0.3,0-0.4,0-0.6-0.2c-0.1-0.2-0.1-0.7-0.2-0.5c0,0.2,0.1,0.5-0.1,0.7c-0.1,0.1-0.5,0.1-0.7,0.1c-0.4,0.1-1.1,0.3-1.5,0.2
	c-0.1,0-0.1-0.1-0.2-0.1c-0.1,0-0.2,0.1-0.3,0.2c-0.2,0.1-0.4,0.1-0.6,0.2c-0.3,0.1-1.4,0.3-1.5,0.1c-0.1-0.1,0-0.4,0.1-0.5
	c0-0.1,0.2-0.5,0-0.6c-0.2-0.1-0.1,0.2-0.1,0.3c0,0.1,0,0.3,0,0.4c0,0.3,0,0.4-0.3,0.5c-0.2,0.1-0.5,0.1-0.7,0.1
	c-0.3,0.1-0.5,0.2-0.8,0.2c-0.3,0-0.3-0.1-0.6,0.1c-0.2,0.1-0.4,0.2-0.6,0.3c-0.1,0-0.6,0.1-0.7,0c-0.2-0.1,0-0.5-0.1-0.7
	c0,0,0,0,0,0c-0.3,0-0.2,0.4-0.2,0.5c0,0.3-0.1,0.5-0.3,0.6c-0.1,0.1-0.4,0.3-0.6,0.1c-0.2-0.2,0-0.8-0.1-1
	c-0.2-0.3-0.6-0.2-0.8-0.4C11.4,73.4,12.2,73.4,12.4,73.3z M10.9,64.4c0.4-0.1,0.4,0.6,0.2,0.5c-0.2,0-0.3,0-0.4-0.2
	C10.6,64.6,10.8,64.5,10.9,64.4z M10.3,66.3c0.1,0,0.1,0.1,0.1,0.2c0,0.1,0,0.1-0.1,0.2c-0.1,0.1-0.1,0.1-0.1,0.2
	c0,0.1-0.1,0.1-0.1,0.2v0c-0.1,0.1-0.2,0.2-0.4,0.3c-0.1,0.1-0.3,0.3-0.5,0.3c-0.2,0-0.3-0.2-0.3-0.4c0-0.1,0.1-0.2,0.2-0.2
	C9.2,67,9.2,67,9.3,66.9c0.1-0.2,0.4-0.2,0.5-0.4c0.1-0.1,0.1-0.2,0.2-0.2C10.1,66.3,10.2,66.3,10.3,66.3z M8.1,65.5
	c0.1-0.1,0.2-0.2,0.3-0.2c0.1-0.1,0.2-0.1,0.2-0.2C8.7,65,8.8,65,8.8,64.9c0.1-0.1,0.2-0.1,0.2-0.2c0.1-0.1,0.2-0.1,0.3-0.2
	c0.1-0.1,0.1-0.2,0.1-0.3c0.2-0.2,0.4-0.1,0.5,0.1c0.1,0.2,0.1,0.4-0.1,0.6c-0.1,0.1-0.1,0.1-0.2,0.1c-0.1,0-0.2,0.1-0.3,0.1
	c-0.2,0.1-0.2,0.1-0.3,0.3c0,0.1-0.1,0.3-0.2,0.3c-0.1,0-0.2,0.1-0.3,0.1c-0.1,0-0.1-0.1-0.2-0.1C8.3,65.8,8,65.7,8.1,65.5z"/>
<path class="st1" d="M13.8,85c0-0.1,0-0.1,0-0.2c0-0.1,0-0.1,0-0.2c0-0.1,0-0.3-0.1-0.3c-0.1-0.1-0.2,0.1-0.3,0.1c0,0.1,0,0.2,0,0.3
	c0,0.1,0,0.1,0,0.2c0,0.1,0,0.2,0,0.2c0.1,0,0.2,0,0.2,0C13.8,85.1,13.8,85.1,13.8,85"/>
<path class="st1" d="M33.9,61.1c-0.3,0-1.5,0.2-1.4-0.3c0.1-0.4,1.2-0.2,1.5-0.2c0.8,0.1,5.3,0.1,5.4,1
	C37.6,61.8,35.7,61.3,33.9,61.1z"/>
<g>
	<path class="st1" d="M32.3,87.5c2.3-0.1,4.6-0.1,6.9-0.3c0.2,0,0.5,0.1,0.7,0.1c0,0,0,0.3,0-0.3c-0.1-1.3-0.2-2.6-0.1-4.4
		c0.1-2.6,0-5.3-0.1-7.9c-0.1-1.3,0.3-2.6,0.3-4c0-0.5-0.2-1-0.1-1.6c0-0.2,0-0.5-0.1-0.8c0-0.3,0-0.6,0-0.8c0-0.1,0-0.2,0-0.3
		c0-0.2,0-0.4,0.1-0.5c0.1-0.4-0.1-0.6-0.1-1c0-0.4,0.1-0.5-0.1-0.9c-0.1-0.2-0.1-0.3-0.3-0.4c-0.2-0.1-0.2-0.1-0.3-0.2
		c-0.1,0-0.2-0.1-0.3-0.1c-0.2-0.1-0.3-0.2-0.5-0.2c-0.2,0-0.4-0.2-0.7-0.2c-0.4,0-0.9-0.1-1.3-0.1c-0.8-0.1-3-0.7-3.7-0.4
		c-0.5,0.2-0.1,2-0.2,2.5c-0.1,1-0.1,1.9-0.2,2.9c-0.1,0.8,0.2,1.6,0.1,2.4c-0.1,0.9-0.2,1.8,0,2.7c0.3,1.3-0.2,2.6-0.2,3.9
		c0,1.1,0,2.2,0.1,3.3c0.1,0.6,0.1,1.1,0.1,1.7c0,0.6-0.4,1-0.5,1.6c-0.2,1,0.3,2.1,0.3,3.1C32.3,87.2,32.3,87.3,32.3,87.5z"/>
</g>
<path class="st1" d="M37.2,55.1c-0.1-0.1-0.2-0.2-0.3-0.3c-0.2-0.1-0.4-0.1-0.5-0.1c-0.4-0.1-0.7-0.2-1-0.3
	c-0.2-0.1-0.8-0.4-0.2-0.3c0.2,0,0.2,0,0.4,0c0.9-0.1,1.9,0.4,2.8,0.4c0.8,0,2.4,0.4,3.1,0.5c0.6,0.1,0.8,0.3,1.4,0.6
	c0.3,0.1,0.5,0.1,0.8,0.3c0.5,0.2,1,0.5,1,1c0,0.2,0.2,0.3,0.3,0.5c0.1,0.2,0.1,0.3,0.1,0.5c0,0.2,0,0.3,0,0.5c0,0.3,0.2,0.7,0.2,1
	c0,0.3,0.3,0.8-0.2,0.8c-0.2,0,0.2-0.1-0.1,0c-0.1,0.1-0.2,0.1-0.4,0.1c-0.2,0-0.3,0-0.5-0.1c-0.2-0.1-0.3,0-0.4-0.3
	c-0.1-0.2-0.1-0.1-0.2-0.3c-0.1-0.2-0.1-0.4-0.1-0.6c-0.1-0.4-0.3-0.6-0.7-0.8c-0.2-0.1-0.3-0.1-0.5-0.1c-0.3-0.1-0.1-0.2-0.2-0.4
	c0-0.1-0.2-0.3-0.3-0.3c-0.2,0-0.2,0.2-0.3,0.3c-0.5,0.3-0.8-0.5-1-0.7c-0.4-0.2-0.8-0.2-1.1-0.6c-0.2-0.2-0.3-0.5-0.5-0.7
	c-0.1-0.1-0.3-0.2-0.5-0.3C38.1,55.2,37.3,55.1,37.2,55.1z"/>
<path class="st1" d="M43.8,54.4c-0.6-0.1-1.1-0.5-1.8-0.7c-1.1-0.4-3.1-0.6-4.3-0.3c1.1,0.5,2.6,0.4,3.7,0.7
	c0.6,0.1,1.2,0.4,1.8,0.6c0.9,0.2,1.5,0.9,2.4,1.1c0.3,0.1-0.1-0.7-0.2-0.8C45,54.5,44.3,54.5,43.8,54.4z"/>
<path class="st1" d="M13.8,87.4c0-0.1,0-0.1,0-0.2c0-0.1,0-0.1,0-0.2c0-0.1,0-0.3-0.1-0.3c-0.1-0.1-0.2,0.1-0.3,0.1
	c0,0.1,0,0.2,0,0.3c0,0.1,0,0.1,0,0.2c0,0.1,0,0.2,0,0.2c0.1,0,0.2,0,0.2,0C13.9,87.5,13.8,87.5,13.8,87.4"/>
<path class="st1" d="M15.6,87.1c0-0.1,0-0.1,0-0.2c0-0.1,0-0.1,0-0.2c0-0.1,0-0.3-0.1-0.3c-0.1-0.1-0.2,0.1-0.3,0.1
	c0,0.1,0,0.2,0,0.3c0,0.1,0,0.1,0,0.2c0,0.1,0,0.2,0,0.2c0.1,0,0.2,0,0.2,0C15.6,87.3,15.6,87.2,15.6,87.1"/>
<polyline class="st1" points="32.3,87.5 45.3,87.5 45.4,85.2 32.4,86.9 "/>
</svg>
