<?xml version="1.0" encoding="utf-8"?>
<!-- Generator: Adobe Illustrator 16.0.0, SVG Export Plug-In . SVG Version: 6.00 Build 0)  -->
<!DOCTYPE svg PUBLIC "-//W3C//DTD SVG 1.1//EN" "http://www.w3.org/Graphics/SVG/1.1/DTD/svg11.dtd">
<svg version="1.1" id="Layer_1" xmlns="http://www.w3.org/2000/svg" xmlns:xlink="http://www.w3.org/1999/xlink" x="0px" y="0px"
	 width="30px" height="30px" viewBox="0 0 30 30" enable-background="new 0 0 30 30" xml:space="preserve">
<g>
	<path fill="#006B54" d="M15,29.27C7.122,29.27,0.73,22.879,0.73,15C0.73,7.122,7.122,0.73,15,0.73c7.879,0,14.27,6.391,14.27,14.27
		S22.879,29.27,15,29.27z M21.727,18.361L18.361,15l3.363-3.363c0.225-0.224,0.354-0.52,0.354-0.836c0-0.317-0.13-0.632-0.354-0.855
		l-1.67-1.671c-0.226-0.224-0.541-0.354-0.856-0.354s-0.612,0.13-0.837,0.354L15,11.637l-3.363-3.363
		c-0.224-0.224-0.52-0.354-0.836-0.354c-0.317,0-0.632,0.13-0.855,0.354L8.274,9.946C8.05,10.169,7.92,10.485,7.92,10.801
		c0,0.316,0.13,0.612,0.354,0.836L11.637,15l-3.363,3.361C8.05,18.586,7.92,18.883,7.92,19.198s0.13,0.633,0.354,0.856l1.671,1.67
		c0.223,0.225,0.539,0.354,0.855,0.354c0.316,0,0.612-0.13,0.836-0.354L15,18.361l3.361,3.363c0.225,0.225,0.521,0.354,0.837,0.354
		c0.315,0,0.633-0.13,0.856-0.354l1.67-1.67c0.225-0.226,0.354-0.541,0.354-0.856S21.949,18.586,21.727,18.361z"/>
</g>
</svg>
