<?xml version="1.0" encoding="utf-8"?>
<!-- Generator: Adobe Illustrator 23.0.1, SVG Export Plug-In . SVG Version: 6.00 Build 0)  -->
<svg version="1.1" id="Layer_1" xmlns="http://www.w3.org/2000/svg" xmlns:xlink="http://www.w3.org/1999/xlink" x="0px" y="0px"
	 viewBox="0 0 32 32" style="enable-background:new 0 0 32 32;" xml:space="preserve">
<style type="text/css">
	.st0{fill:#FFFFFF;}
</style>
<title>point-right</title>
<path class="st0" d="M13,30h5c1.7,0,3-1.3,3-3c0-0.5-0.1-1-0.4-1.5C21.4,25,22,24.1,22,23c0-0.8-0.3-1.5-0.8-2
	c0.5-0.5,0.8-1.2,0.8-2c0-0.4-0.1-0.7-0.2-1H29c1.7,0,3-1.3,3-3s-1.3-3-3-3H16.7l2.9-5.5C19.9,6,20,5.5,20,5c0-1.7-1.3-3-3-3
	c-0.8,0-1.6,0.3-2.2,0.9c0,0,0,0,0,0L8,10.4V9c0-0.6-0.4-1-1-1H1C0.4,8,0,8.4,0,9v20c0,0.6,0.4,1,1,1h6c0.6,0,1-0.4,1-1v-1.4
	l4.6,2.3C12.7,30,12.8,30,13,30L13,30z M5,28c-0.6,0-1-0.4-1-1s0.4-1,1-1s1,0.4,1,1S5.6,28,5,28z M13.2,28L8,25.4v-12l8.3-9.1
	C16.5,4.1,16.7,4,17,4c0.6,0,1,0.4,1,1c0,0.2,0,0.3-0.1,0.5c0,0,0,0,0,0.1l-3.7,7c-0.2,0.3-0.2,0.7,0,1S14.6,14,15,14h14
	c0.6,0,1,0.4,1,1s-0.4,1-1,1H19c-0.6,0-1,0.4-1,1s0.4,1,1,1c0.6,0,1,0.4,1,1s-0.4,1-1,1c-0.6,0-1,0.4-1,1s0.4,1,1,1c0.6,0,1,0.4,1,1
	s-0.4,1-1,1h-1c-0.6,0-1,0.4-1,1s0.4,1,1,1c0.6,0,1,0.4,1,1s-0.4,1-1,1H13.2L13.2,28z"/>
</svg>
